<?xml version="1.0" standalone="no"?>
<!DOCTYPE svg PUBLIC "-//W3C//DTD SVG 20010904//EN"
 "http://www.w3.org/TR/2001/REC-SVG-20010904/DTD/svg10.dtd">
<svg version="1.0" xmlns="http://www.w3.org/2000/svg"
 width="2864.000000pt" height="492.000000pt" viewBox="0 0 2864.000000 492.000000"
 preserveAspectRatio="xMidYMid meet">

<g transform="translate(0.000000,492.000000) scale(0.100000,-0.100000)"
fill="#000000" stroke="none">
<path d="M1782 4649 c-458 -39 -915 -280 -1219 -642 -206 -246 -341 -528 -404
-847 -31 -151 -34 -471 -6 -620 55 -298 173 -575 345 -805 99 -134 1442 -1645
1461 -1645 12 0 1319 1469 1424 1600 135 168 236 355 306 565 152 456 122 934
-84 1360 -207 429 -573 763 -1015 928 -244 91 -537 129 -808 106z m339 -139
c785 -80 1397 -661 1505 -1428 24 -169 15 -444 -20 -602 -50 -233 -144 -445
-274 -620 -90 -120 -792 -922 -1347 -1537 l-30 -33 -290 327 c-959 1082 -1055
1192 -1128 1303 -272 416 -341 982 -176 1463 92 269 224 475 434 676 349 332
840 500 1326 451z"/>
<path d="M1447 4213 c-4 -3 -7 -68 -7 -143 l0 -137 -83 -6 c-117 -9 -181 -31
-226 -76 -48 -48 -65 -112 -91 -349 -28 -251 -22 -232 -83 -232 -83 -1 -185
-18 -227 -40 -55 -28 -108 -84 -136 -144 l-24 -51 0 -427 0 -427 38 -31 c20
-17 67 -40 103 -51 l66 -20 6 -73 c8 -109 25 -155 77 -207 56 -56 113 -74 230
-74 98 1 155 21 208 76 50 51 65 86 69 169 2 41 6 85 9 98 l4 22 579 0 578 0
6 -85 c6 -101 41 -182 97 -227 48 -37 149 -62 225 -55 181 18 265 110 265 288
l0 68 43 11 c85 22 104 31 132 61 39 40 44 91 44 510 1 373 -3 403 -62 481
-38 50 -96 92 -150 108 -20 6 -82 14 -137 17 -55 3 -100 10 -100 15 0 23 -42
371 -51 423 -28 164 -113 225 -310 225 l-69 0 0 145 0 145 -508 0 c-280 0
-512 -3 -515 -7z m883 -213 l0 -70 -370 0 -370 0 0 70 0 70 370 0 370 0 0 -70z
m356 -228 c19 -12 80 -479 65 -495 -7 -7 -727 -10 -1428 -8 l-163 1 0 30 c0
49 50 430 60 456 l10 24 722 0 c398 0 728 -4 734 -8z m144 -651 c363 -9 357
-6 370 -180 4 -61 5 -179 2 -261 l-5 -150 -1244 0 -1245 0 3 249 c5 351 -12
333 349 341 367 9 1457 9 1770 1z m375 -806 l0 -70 -1247 -3 -1248 -2 0 68 c0
38 3 72 7 75 3 4 565 6 1247 5 l1241 -3 0 -70z"/>
<path d="M945 3036 c-85 -37 -155 -132 -155 -210 0 -96 102 -204 201 -214 87
-8 194 74 225 172 16 50 16 53 -6 104 -29 67 -103 135 -164 151 -55 14 -64 13
-101 -3z m117 -153 c12 -11 18 -30 18 -59 0 -38 -4 -45 -30 -59 -39 -20 -62
-19 -94 6 -30 24 -35 72 -10 107 19 27 88 31 116 5z"/>
<path d="M2855 3040 c-73 -22 -165 -141 -165 -212 0 -42 23 -90 67 -138 97
-108 221 -104 317 11 77 91 71 180 -18 271 -62 63 -135 88 -201 68z m110 -161
c28 -27 26 -86 -4 -110 -33 -27 -77 -24 -106 6 -29 28 -32 61 -9 93 31 44 79
49 119 11z"/>
<path d="M1447 2823 c-4 -3 -7 -37 -7 -75 l0 -68 515 0 515 0 0 75 0 75 -508
0 c-280 0 -512 -3 -515 -7z"/>
<path d="M1919 1503 c-31 -5 -39 -24 -39 -95 l0 -48 75 0 75 0 0 75 0 75 -42
-1 c-24 -1 -55 -4 -69 -6z"/>
<path d="M1886 1179 c-3 -17 -6 -51 -6 -75 l0 -44 75 0 75 0 0 75 0 75 -69 0
-68 0 -7 -31z"/>
<path d="M1884 906 c-3 -7 -4 -40 -2 -72 l3 -59 73 -3 72 -3 0 76 0 75 -70 0
c-50 0 -72 -4 -76 -14z"/>
<path d="M7368 3650 c-124 -21 -250 -74 -347 -145 -232 -171 -309 -522 -175
-804 70 -149 172 -263 399 -443 157 -125 185 -155 192 -207 7 -50 -14 -87 -62
-107 -68 -28 -298 -10 -519 41 -38 9 -69 15 -70 13 0 -2 0 -159 2 -350 l3
-347 67 -15 c311 -71 658 -81 867 -26 334 88 524 332 528 675 1 135 -20 238
-74 353 -73 158 -147 245 -372 435 -119 102 -177 170 -177 209 0 28 84 43 238
43 l142 0 0 322 0 321 -37 6 c-213 33 -490 45 -605 26z m297 -318 c48 -7 50
-8 61 -49 l13 -43 -143 0 c-160 0 -218 -12 -283 -59 -76 -55 -109 -170 -80
-272 26 -89 90 -171 252 -323 267 -251 340 -335 396 -462 33 -73 33 -215 0
-302 -27 -73 -100 -159 -166 -197 -114 -67 -282 -90 -493 -66 -149 17 -142 14
-142 72 0 46 2 49 23 44 12 -2 49 -9 82 -14 302 -48 503 6 589 159 29 51 31
62 31 150 0 87 -3 101 -32 160 -42 84 -120 172 -322 361 -250 233 -321 343
-323 494 -1 140 57 239 177 299 96 47 228 65 360 48z"/>
<path d="M17080 3640 c-115 -24 -198 -53 -305 -107 -120 -60 -202 -119 -306
-221 -194 -188 -311 -412 -355 -680 -19 -116 -14 -328 10 -440 52 -240 163
-443 335 -612 177 -175 392 -291 617 -334 419 -79 829 51 1118 354 158 167
259 356 318 600 9 37 13 119 12 250 0 177 -3 204 -26 290 -62 230 -161 397
-337 570 -182 179 -370 281 -608 329 -133 27 -349 28 -473 1z m455 -330 c172
-45 368 -171 474 -303 365 -459 214 -1118 -314 -1372 -128 -62 -219 -80 -395
-80 -149 1 -159 2 -254 35 -307 105 -515 333 -602 660 -26 97 -23 300 5 405
93 350 375 610 729 675 77 15 268 4 357 -20z"/>
<path d="M17213 3240 c-274 -40 -518 -225 -630 -478 -74 -167 -84 -395 -25
-568 117 -346 442 -571 797 -551 126 7 196 26 310 81 364 179 537 592 409 975
-35 104 -94 201 -178 288 -139 148 -299 229 -496 253 -93 11 -111 11 -187 0z
m278 -339 c166 -63 282 -212 311 -401 13 -81 -7 -195 -49 -279 -89 -178 -311
-294 -504 -264 -134 21 -258 101 -339 218 -96 139 -105 336 -24 497 55 108
193 218 311 248 65 16 230 5 294 -19z"/>
<path d="M4377 3603 c-3 -5 15 -57 38 -118 81 -208 776 -1990 818 -2097 l42
-108 296 0 c226 0 299 3 306 13 5 6 179 449 386 982 207 534 408 1049 446
1145 38 96 67 178 64 183 -5 9 -629 10 -734 1 l-74 -7 -194 -494 c-107 -272
-197 -490 -201 -486 -7 8 -240 602 -335 854 l-48 126 -96 7 c-134 8 -709 8
-714 -1z m660 -498 c47 -121 182 -467 300 -770 118 -302 219 -561 225 -575 9
-23 11 -20 39 45 16 39 118 295 225 570 108 275 236 602 286 728 l89 227 50 0
c27 0 49 -2 49 -4 0 -3 -30 -81 -66 -173 -36 -92 -175 -449 -309 -793 -314
-807 -296 -762 -313 -782 -8 -10 -27 -18 -42 -18 -34 0 -41 14 -155 310 -46
118 -191 493 -324 833 -133 340 -241 620 -241 623 0 3 23 4 51 2 l51 -3 85
-220z"/>
<path d="M8422 3602 c-10 -7 -12 -246 -10 -1163 l3 -1154 693 -3 692 -2 0 305
0 305 -325 0 -325 0 0 135 0 135 310 0 310 0 0 290 0 290 -310 0 -310 0 0 124
c0 104 3 125 16 130 9 3 150 6 315 6 l299 0 0 299 0 299 -22 6 c-34 9 -1321 7
-1336 -2z m1124 -308 c8 -20 12 -39 9 -43 -4 -3 -164 -8 -356 -10 l-349 -3 0
-369 0 -369 333 -2 332 -3 0 -45 0 -45 -332 -3 -333 -2 0 -375 0 -375 284 0
c155 0 310 -3 343 -6 57 -6 62 -9 77 -41 9 -18 16 -36 16 -38 0 -3 -182 -5
-405 -5 l-405 0 0 885 0 885 386 0 385 0 15 -36z"/>
<path d="M10597 3603 c-4 -3 -7 -141 -7 -305 l0 -298 210 0 210 0 2 -857 3
-858 383 -3 382 -2 0 860 0 860 215 0 215 0 -2 303 -3 302 -801 3 c-440 1
-804 -1 -807 -5z m1343 -318 l0 -45 -245 0 -245 0 0 -840 0 -840 -50 0 -50 0
0 840 0 840 -247 2 -248 3 -3 28 c-7 60 -41 57 548 57 l540 0 0 -45z"/>
<path d="M12807 3603 c-46 -4 -50 -6 -67 -46 -34 -78 -860 -2260 -860 -2273 0
-2 163 -4 363 -4 l362 0 40 103 41 102 351 3 351 2 27 -79 c14 -44 35 -91 46
-105 l20 -26 355 0 c227 0 354 4 354 10 0 5 -79 218 -176 472 -97 255 -293
771 -435 1147 -142 376 -260 685 -262 688 -7 6 -453 12 -510 6z m513 -843
c249 -651 450 -1188 450 -1201 0 -16 -44 -10 -76 10 -24 14 -39 37 -59 90
l-28 71 -573 0 -572 0 -16 -42 c-9 -24 -22 -61 -29 -83 -14 -39 -15 -40 -65
-43 -29 -2 -52 1 -52 5 0 24 652 1720 667 1735 21 21 125 39 135 23 3 -5 101
-260 218 -565z"/>
<path d="M12975 3085 c-33 -82 -154 -400 -270 -705 l-211 -555 274 -3 c150 -1
394 -1 541 0 l268 3 -139 365 c-242 636 -360 943 -383 995 l-21 50 -59 -150z
m81 -722 c32 -79 134 -346 134 -354 0 -5 -70 -9 -155 -9 -85 0 -155 4 -155 8
0 19 148 392 156 392 2 0 11 -17 20 -37z"/>
<path d="M14286 3601 c-5 -8 468 -882 572 -1058 l30 -51 -145 -269 c-80 -147
-226 -413 -324 -590 -99 -177 -182 -329 -185 -338 -5 -13 39 -15 399 -15 l404
0 103 188 c162 293 151 277 164 256 5 -11 63 -113 127 -229 l117 -210 406 -3
c223 -1 406 0 406 3 0 2 -55 103 -121 222 -227 408 -532 968 -532 978 0 11
577 1068 595 1092 24 31 -6 33 -402 33 l-399 0 -72 -132 c-39 -73 -86 -159
-104 -192 l-33 -58 -72 133 c-40 74 -87 159 -105 189 l-31 55 -396 3 c-236 1
-399 -2 -402 -7z m557 -272 c48 -13 58 -30 252 -385 81 -148 159 -288 172
-312 l26 -44 49 89 c27 48 112 203 189 344 77 141 153 268 168 283 27 26 119
51 110 30 -11 -26 -84 -161 -234 -434 -91 -167 -180 -330 -196 -362 l-30 -59
109 -197 c60 -108 161 -291 225 -407 63 -115 127 -230 141 -255 14 -25 26 -48
26 -52 0 -5 -24 -8 -52 -8 l-53 0 -193 353 c-106 193 -208 378 -226 411 l-33
58 -51 -88 c-27 -49 -127 -231 -222 -404 -94 -173 -175 -319 -179 -323 -5 -5
-31 -7 -59 -5 l-51 3 216 390 c218 396 283 518 283 532 0 9 -84 166 -303 566
-81 147 -147 272 -147 277 0 13 15 13 63 -1z"/>
<path d="M18730 2445 l0 -1165 370 0 370 0 0 280 0 280 64 0 c91 0 277 26 366
51 274 76 475 240 563 459 54 136 61 183 62 370 0 152 -3 186 -23 260 -61 223
-195 388 -402 494 -223 114 -382 135 -1012 136 l-358 0 0 -1165z m897 874
c105 -14 255 -66 325 -113 125 -82 202 -206 233 -371 43 -226 -36 -448 -203
-576 -145 -111 -309 -148 -649 -149 l-163 0 0 -275 0 -275 -50 0 -50 0 0 885
0 885 239 0 c132 0 275 -5 318 -11z"/>
<path d="M19170 2725 l0 -525 196 0 c217 0 306 10 409 47 154 56 235 133 292
280 23 60 27 83 27 188 1 92 -3 133 -18 175 -71 211 -227 319 -501 350 -49 5
-161 10 -247 10 l-158 0 0 -525z m445 240 c53 -15 106 -58 131 -108 42 -80 34
-227 -17 -301 -32 -48 -106 -84 -191 -92 l-68 -7 0 268 0 267 48 -6 c26 -4 70
-13 97 -21z"/>
<path d="M20718 3605 c-5 -5 -8 -530 -8 -1167 l0 -1158 364 0 363 0 7 105 c4
58 4 169 0 248 -3 78 -2 159 3 180 l8 39 170 -284 170 -283 433 -3 434 -2 -50
92 c-28 51 -125 224 -216 383 l-165 290 54 50 c109 102 186 228 227 372 32
111 31 360 -1 478 -94 348 -353 567 -756 640 -72 13 -186 18 -560 22 -258 3
-473 2 -477 -2z m894 -290 c169 -25 303 -88 411 -193 116 -113 168 -238 169
-407 2 -118 -12 -184 -59 -283 -45 -95 -122 -173 -231 -232 -45 -25 -89 -49
-97 -55 -11 -8 18 -63 151 -285 91 -151 168 -281 171 -287 4 -10 -10 -13 -50
-13 l-55 0 -163 276 -164 275 -35 -6 c-19 -3 -142 -8 -272 -11 l-238 -6 -2
-262 -3 -261 -47 -3 -48 -3 0 879 c0 483 3 882 7 885 13 14 456 7 555 -8z"/>
<path d="M21169 3243 c-12 -3 -18 -22 -23 -80 -8 -98 -8 -886 0 -947 l7 -46
151 0 c252 0 392 23 521 84 178 84 275 244 275 456 0 303 -188 485 -550 529
-81 11 -348 13 -381 4z m495 -297 c100 -49 143 -129 134 -249 -12 -145 -101
-218 -285 -234 l-73 -6 0 209 c0 115 3 233 7 263 l6 53 77 -4 c58 -3 92 -12
134 -32z"/>
<path d="M23630 3601 l-55 -6 -137 -355 c-150 -390 -727 -1915 -735 -1942 -5
-17 17 -18 359 -18 l365 0 39 105 39 105 350 0 350 0 40 -105 39 -105 364 0
c342 0 364 1 360 18 -3 9 -136 361 -295 782 -160 421 -354 934 -433 1141
l-142 376 -105 7 c-121 7 -322 6 -403 -3z m382 -506 c172 -446 578 -1524 578
-1534 0 -16 -27 -13 -66 5 -26 12 -41 32 -64 79 -17 35 -30 68 -30 74 0 8
-161 11 -573 11 l-574 0 -34 -85 -34 -85 -47 0 c-27 0 -48 5 -48 10 0 6 39
110 86 233 99 256 340 890 474 1247 51 135 96 253 102 263 8 15 20 17 75 15
l66 -3 89 -230z"/>
<path d="M23835 3188 c-35 -87 -191 -495 -352 -918 -90 -239 -167 -438 -169
-442 -3 -4 240 -8 539 -8 l545 0 -43 113 c-24 61 -143 375 -265 697 -122 322
-226 589 -230 593 -4 5 -15 -11 -25 -35z m104 -986 c39 -101 71 -188 71 -193
0 -5 -66 -9 -155 -9 -87 0 -155 4 -155 9 0 5 30 85 66 178 36 92 70 179 75
192 6 14 13 20 18 15 5 -5 40 -91 80 -192z"/>
<path d="M25077 3603 c-4 -3 -7 -528 -7 -1165 l0 -1158 375 0 375 0 2 353 3
352 124 -180 c68 -99 178 -258 244 -352 l120 -173 444 0 c374 0 444 2 440 14
-3 7 -66 101 -139 207 -233 337 -708 1038 -708 1044 0 4 53 75 118 158 65 84
233 301 372 482 140 182 267 347 284 368 25 32 28 40 16 47 -17 11 -726 11
-830 1 l-64 -6 -206 -252 c-113 -139 -208 -252 -212 -252 -5 -1 -8 113 -8 253
l0 253 -52 7 c-71 8 -683 8 -691 -1z m1473 -269 c0 -8 -193 -253 -429 -543
-105 -129 -187 -239 -184 -245 4 -6 118 -173 253 -371 222 -324 392 -577 414
-614 7 -11 0 -12 -35 -6 -24 4 -55 13 -68 20 -13 6 -156 205 -325 450 -165
241 -305 440 -311 441 -10 3 -317 -375 -345 -424 -12 -22 -15 -71 -15 -252 l0
-225 -47 -3 -48 -3 0 885 0 886 44 0 43 0 7 -62 c3 -35 4 -227 1 -428 -3 -201
-2 -429 2 -508 l8 -143 35 45 c19 24 223 276 452 559 278 342 427 518 445 525
16 6 42 13 58 15 17 2 33 5 38 6 4 0 7 -2 7 -5z"/>
<path d="M27283 3603 c-10 -4 -13 -246 -13 -1164 l0 -1159 395 0 395 0 0 1159
0 1159 -22 6 c-27 7 -738 7 -755 -1z m437 -1159 l0 -885 -52 3 c-53 3 -53 3
-52 36 0 17 1 415 2 882 l2 850 50 0 50 0 0 -886z"/>
</g>
</svg>
