<svg width="20" height="17" viewBox="0 0 20 17" fill="none" xmlns="http://www.w3.org/2000/svg">
    <path
        d="M17.4337 9.76188H15.767V4.12688L9.16031 10.0435L2.43364 4.10854V13.9285H10.767V15.5952H1.60031C1.37929 15.5952 1.16733 15.5074 1.01105 15.3511C0.854766 15.1948 0.766968 14.9829 0.766968 14.7619V1.42854C0.766968 1.20753 0.854766 0.995573 1.01105 0.839293C1.16733 0.683012 1.37929 0.595215 1.60031 0.595215H16.6003C16.8213 0.595215 17.0333 0.683012 17.1896 0.839293C17.3459 0.995573 17.4337 1.20753 17.4337 1.42854V9.76188ZM2.85947 2.26188L9.15114 7.81354L15.352 2.26188H2.85947ZM14.9337 16.4285L11.987 13.4819L13.1662 12.3035L14.9337 14.0719L17.8803 11.1252L19.0587 12.3035L14.9337 16.4285Z"
        fill="black" />
</svg>