<svg width="25" height="15" viewBox="0 0 25 15" fill="none" xmlns="http://www.w3.org/2000/svg">
    <path fill-rule="evenodd" clip-rule="evenodd"
        d="M23.6484 1.49635C23.8153 0.94005 23.6484 0.53125 22.8543 0.53125H20.2287C19.561 0.53125 19.2535 0.884351 19.0866 1.27395C19.0866 1.27395 17.7512 4.52835 15.8597 6.64235C15.2477 7.25435 14.9696 7.44875 14.6358 7.44875C14.4689 7.44875 14.2273 7.25435 14.2273 6.69805V1.49635C14.2273 0.82865 14.0336 0.53125 13.4771 0.53125H9.35115C8.93405 0.53125 8.68305 0.84105 8.68305 1.13475C8.68305 1.76775 9.62865 1.91365 9.72615 3.69375V7.56035C9.72615 8.40805 9.57316 8.56185 9.23936 8.56185C8.34925 8.56185 6.18425 5.29265 4.89995 1.55205C4.64825 0.824951 4.39585 0.53125 3.7248 0.53125H1.09918C0.349015 0.53125 0.198975 0.884351 0.198975 1.27395C0.198975 1.96935 1.08924 5.41865 4.34365 9.98045C6.51355 13.0956 9.57015 14.7846 12.3519 14.7846C14.021 14.7846 14.2273 14.4095 14.2273 13.7634V11.4087C14.2273 10.6586 14.3854 10.509 14.9137 10.509C15.3034 10.509 15.9709 10.7037 17.5288 12.2057C19.309 13.9857 19.6023 14.7846 20.6038 14.7846H23.2294C23.9796 14.7846 24.3547 14.4094 24.1382 13.6692C23.9016 12.9314 23.0516 11.8614 21.9237 10.5925C21.3118 9.86905 20.3937 9.09015 20.1158 8.70085C19.7263 8.20005 19.8375 7.97765 20.1158 7.53285C20.1158 7.53285 23.3145 3.02635 23.6484 1.49635Z"
        fill="black" />
</svg>