<svg width="22" height="22" viewBox="0 0 22 22" fill="none" xmlns="http://www.w3.org/2000/svg">
<path d="M18.2637 4.00383C16.334 2.01735 13.6664 0.938965 10.9421 0.938965C5.15295 0.938965 0.498888 5.64982 0.555648 11.3822C0.555648 13.1984 1.06646 14.9579 1.91781 16.5471L0.442139 21.9389L5.94755 20.52C7.47995 21.3714 9.18265 21.7687 10.8853 21.7687C16.6178 21.7687 21.2718 17.0579 21.2718 11.3254C21.2718 8.54441 20.1934 5.93352 18.2637 4.00383ZM10.9421 20.0092C9.40975 20.0092 7.87725 19.6119 6.57185 18.8173L6.23135 18.6471L2.93945 19.4984L3.79075 16.2633L3.56375 15.9227C1.06646 11.893 2.25835 6.55791 6.34485 4.06059C10.4313 1.56329 15.7097 2.75518 18.207 6.84171C20.7043 10.9281 19.5124 16.2065 15.4259 18.7038C14.1205 19.5552 12.5313 20.0092 10.9421 20.0092ZM15.9367 13.7092L15.3124 13.4254C15.3124 13.4254 14.4043 13.0281 13.8367 12.7444C13.7799 12.7444 13.7232 12.6876 13.6664 12.6876C13.4961 12.6876 13.3826 12.7444 13.2691 12.8011C13.2691 12.8011 13.2124 12.8579 12.4178 13.766C12.361 13.8795 12.2475 13.9362 12.134 13.9362H12.0772C12.0205 13.9362 11.907 13.8795 11.8502 13.8227L11.5664 13.7092C10.9421 13.4254 10.3745 13.0849 9.92055 12.6308C9.80705 12.5173 9.63675 12.4038 9.52325 12.2903C9.12595 11.893 8.72865 11.439 8.44485 10.9281L8.38805 10.8146C8.33135 10.7579 8.33135 10.7011 8.27455 10.5876C8.27455 10.4741 8.27455 10.3606 8.33135 10.3038C8.33135 10.3038 8.55835 10.02 8.72865 9.84981C8.84215 9.73621 8.89885 9.56601 9.01245 9.45251C9.12595 9.28222 9.18265 9.05521 9.12595 8.88491C9.06915 8.60111 8.38805 7.06872 8.21785 6.72812C8.10425 6.55792 7.99075 6.50112 7.82055 6.44442H7.65025C7.53675 6.44442 7.36645 6.44442 7.19615 6.44442C7.08265 6.44442 6.96915 6.50111 6.85565 6.50111L6.79885 6.55791C6.68535 6.61461 6.57185 6.72812 6.45835 6.78491C6.34485 6.89842 6.28805 7.01191 6.17455 7.12541C5.77725 7.63621 5.55025 8.26061 5.55025 8.88491C5.55025 9.33891 5.66375 9.79302 5.83405 10.1903L5.89075 10.3606C6.40155 11.439 7.08265 12.4038 7.99075 13.2552L8.21785 13.4822C8.38805 13.6525 8.55835 13.766 8.67185 13.9362C9.86375 14.9579 11.2259 15.6957 12.7583 16.093C12.9286 16.1498 13.1556 16.1498 13.3259 16.2065C13.4961 16.2065 13.7232 16.2065 13.8934 16.2065C14.1772 16.2065 14.5178 16.093 14.7448 15.9795C14.9151 15.866 15.0286 15.866 15.1421 15.7525L15.2556 15.6389C15.3691 15.5254 15.4826 15.4687 15.5961 15.3552C15.7097 15.2417 15.8232 15.1281 15.8799 15.0146C15.9934 14.7876 16.0502 14.5038 16.107 14.22C16.107 14.1065 16.107 13.9362 16.107 13.8227C16.107 13.8227 16.0502 13.766 15.9367 13.7092Z" fill="black"/>
</svg>
