<svg width="24" height="16" viewBox="0 0 24 16" fill="none" xmlns="http://www.w3.org/2000/svg">
<path fill-rule="evenodd" clip-rule="evenodd" d="M21.0035 0.700162C21.9671 0.959662 22.7271 1.71956 22.9866 2.68326C23.4684 4.44396 23.4499 8.11366 23.4499 8.11366C23.4499 8.11366 23.4499 11.7648 22.9866 13.5255C22.7271 14.4893 21.9671 15.2492 21.0035 15.5086C19.2428 15.972 12.2 15.972 12.2 15.972C12.2 15.972 5.17565 15.972 3.3964 15.4901C2.43265 15.2306 1.67276 14.4708 1.41329 13.507C0.949951 11.7648 0.949951 8.09516 0.949951 8.09516C0.949951 8.09516 0.949951 4.44396 1.41329 2.68326C1.67276 1.71956 2.45118 0.941162 3.3964 0.681662C5.15705 0.218262 12.2 0.218262 12.2 0.218262C12.2 0.218262 19.2428 0.218262 21.0035 0.700162ZM15.8145 8.09536L9.95775 11.4685V4.72226L15.8145 8.09536Z" fill="black"/>
</svg>
