<?xml version="1.0" standalone="no"?>
<!DOCTYPE svg PUBLIC "-//W3C//DTD SVG 20010904//EN"
 "http://www.w3.org/TR/2001/REC-SVG-20010904/DTD/svg10.dtd">
<svg version="1.0" xmlns="http://www.w3.org/2000/svg"
 width="904.000000pt" height="150.000000pt" viewBox="0 0 904.000000 150.000000"
 preserveAspectRatio="xMidYMid meet">

<g transform="translate(0.000000,150.000000) scale(0.100000,-0.100000)"
fill="#000000" stroke="none">
<path d="M8440 1317 c-31 -16 -70 -73 -70 -104 0 -98 119 -149 194 -83 42 38
52 76 32 124 -26 62 -99 92 -156 63z"/>
<path d="M2810 1165 l0 -135 -40 0 -40 0 0 -90 0 -90 39 0 39 0 4 -133 c3
-126 5 -137 36 -200 57 -115 144 -166 303 -174 l99 -6 0 92 0 91 -84 0 c-70 0
-88 4 -117 23 -51 34 -59 58 -59 190 l0 117 130 0 130 0 0 90 0 90 -130 0
-130 0 0 135 0 135 -90 0 -90 0 0 -135z"/>
<path d="M7695 1288 c-3 -7 -4 -222 -3 -478 l3 -465 88 -3 87 -3 0 46 c0 41 7
55 61 126 l61 80 71 -125 71 -126 98 0 c54 0 98 1 98 3 0 2 -49 90 -110 196
-60 106 -110 196 -110 201 0 5 37 55 83 112 45 57 95 120 111 141 l28 37 -99
0 -99 0 -85 -107 c-46 -60 -105 -134 -129 -166 l-45 -57 -3 300 -2 300 -85 0
c-59 0 -87 -4 -90 -12z"/>
<path d="M1940 1041 c-97 -32 -172 -97 -216 -187 -25 -52 -28 -70 -28 -159 -1
-94 1 -105 32 -167 86 -176 298 -247 472 -157 39 20 120 91 120 106 0 5 -27
35 -59 67 l-59 58 -40 -40 c-41 -41 -83 -57 -135 -50 -26 3 -18 14 133 195 88
106 160 196 160 201 0 17 -85 88 -135 112 -38 19 -69 25 -135 27 -47 1 -96 -1
-110 -6z m134 -170 c3 -5 -38 -68 -91 -140 -107 -143 -115 -146 -115 -41 0
111 69 186 174 189 15 1 29 -3 32 -8z"/>
<path d="M3553 1036 c-147 -46 -236 -177 -236 -346 0 -117 27 -186 102 -260
71 -70 135 -95 241 -95 77 1 143 25 207 75 14 11 29 20 34 20 4 0 22 -20 39
-45 19 -27 39 -45 50 -45 19 0 20 9 20 345 0 322 -1 345 -17 345 -10 0 -34
-18 -54 -41 l-35 -42 -51 37 c-28 20 -69 43 -93 51 -51 18 -150 18 -207 1z
m173 -175 c64 -29 97 -80 102 -156 8 -115 -62 -195 -170 -195 -69 0 -114 28
-145 90 -38 73 -29 158 22 217 52 61 120 76 191 44z"/>
<path d="M4993 1030 c-71 -29 -147 -100 -186 -174 -29 -56 -31 -69 -32 -161 0
-96 2 -105 34 -169 39 -76 88 -123 171 -164 47 -23 67 -27 140 -27 72 1 94 5
144 29 265 129 270 525 8 653 -76 37 -202 43 -279 13z m178 -161 c111 -38 155
-178 89 -283 -37 -58 -83 -80 -156 -74 -93 8 -154 78 -154 178 0 133 105 218
221 179z"/>
<path d="M5818 1036 c-42 -17 -84 -41 -117 -70 l-23 -21 -38 43 c-25 29 -44
43 -56 40 -18 -3 -19 -21 -19 -473 l0 -470 85 0 85 0 3 153 3 152 52 -27 c44
-23 64 -28 132 -28 71 0 88 4 147 33 73 36 123 86 160 161 20 40 23 61 23 161
0 100 -3 121 -23 161 -35 71 -84 122 -154 159 -54 29 -75 34 -143 37 -51 2
-93 -2 -117 -11z m155 -170 c51 -19 76 -42 98 -94 26 -60 24 -109 -7 -170 -31
-63 -79 -92 -151 -92 -192 1 -239 291 -58 355 50 18 70 18 118 1z"/>
<path d="M6559 1035 c-124 -45 -206 -145 -230 -280 -30 -162 50 -326 190 -389
119 -53 236 -43 339 30 26 19 49 34 53 34 3 0 20 -20 39 -45 19 -25 42 -45 52
-45 17 0 18 18 18 345 0 333 -1 345 -19 345 -11 0 -35 -19 -54 -42 l-34 -41
-34 26 c-68 52 -138 77 -214 76 -38 0 -86 -6 -106 -14z m181 -177 c101 -51
134 -164 77 -261 -34 -58 -86 -87 -155 -87 -94 0 -157 69 -157 175 0 80 9 106
47 144 55 54 119 63 188 29z"/>
<path d="M300 1022 c0 -8 27 -80 127 -342 24 -63 55 -144 68 -180 13 -36 33
-87 44 -113 l21 -48 87 3 c86 3 86 3 96 33 5 17 52 140 104 275 52 135 105
275 118 313 l24 67 -98 0 -98 0 -73 -210 c-41 -115 -76 -207 -79 -204 -3 3
-38 96 -77 207 l-71 202 -96 3 c-53 1 -97 -1 -97 -6z"/>
<path d="M1177 1016 c-69 -19 -127 -72 -146 -136 -33 -111 6 -211 104 -263 34
-18 62 -23 180 -27 124 -4 140 -7 143 -23 9 -43 -9 -47 -229 -47 l-209 0 0
-91 0 -91 223 4 c209 3 225 4 270 26 31 16 59 40 80 70 29 43 32 54 32 124 0
70 -2 79 -31 115 -53 67 -99 83 -239 83 -128 0 -165 11 -165 49 0 36 23 40
211 43 l184 3 0 85 0 85 -180 2 c-121 1 -195 -2 -228 -11z"/>
<path d="M4086 1018 c4 -7 59 -81 121 -165 62 -84 113 -155 113 -158 0 -3 -54
-82 -120 -175 -66 -92 -120 -171 -120 -174 0 -3 46 -6 103 -6 l102 0 69 105
c38 58 70 105 71 105 2 0 33 -47 71 -105 l67 -105 104 0 c57 0 103 3 103 7 0
3 -17 29 -39 57 -21 28 -76 104 -121 170 -76 108 -82 120 -70 140 10 17 181
249 223 304 7 9 -13 12 -96 12 l-106 0 -62 -87 c-34 -49 -65 -92 -69 -97 -4
-4 -38 35 -76 88 l-67 96 -104 0 c-81 0 -102 -3 -97 -12z"/>
<path d="M7155 1017 c-3 -6 -4 -161 -3 -342 l3 -330 85 0 85 0 5 217 5 218 33
32 c32 32 34 33 137 36 l105 4 0 90 0 91 -111 -5 c-103 -5 -117 -8 -181 -41
l-69 -36 -27 39 c-27 39 -58 52 -67 27z"/>
<path d="M8402 688 l3 -343 83 -3 82 -3 0 346 0 345 -85 0 -85 0 2 -342z"/>
</g>
</svg>
